<svg xmlns="http://www.w3.org/2000/svg" viewBox="0 0 960 750"><path d="m661 667-54-34a199 199 0 0 1 36 93q-12 14-32 20c-47 13-106-20-132-74q-14-31-11-58l-8 4-2-10q0-39 25-50 24-10 60 11 37 24 64 64zM243 474q-14 20-39 26c-46 11-103-24-127-78q-11-26-10-50l-8 4-1-10q-1-39 27-50l-19-12h1l18 12q23-9 58 11 36 23 62 62h1c19 29 33 60 37 85M59 376"/><path fill="#e6e7e8" d="M496 673c-18-37-12-73 15-80 26-7 61 18 79 55s11 72-15 79c-25 8-61-17-79-54m41 22v-26l-23-9 4 9h1q7 15 18 26m30-66q-18-19-37-17l21 24zm16 23-4-7-5 21 16 16c2-11 0-17-7-30m-30 54q11 6 21 3 7-3 10-10l-25-19zm-32-90q-11 9-9 30v-2l20-2zM93 422c-16-37-8-73 18-79 25-6 59 19 76 57 16 38 9 73-17 79s-60-19-77-57m71-41q-16-19-36-18l20 24zm-45-15q-11 8-10 28v-1l19-2zm29 91q11 6 21 4c4-1 10-5 10-10l-24-20zm32-53-4-7-6 21 16 16c2-10-1-16-6-30m-47 41 1-25-22-10 3 9h1q6 15 17 26M693 91q10 5 16 10c57 37 132 93 212 279L636 569c-81-186-156-242-212-279q-6-5-16-10z"/><path fill="#1d592c" d="M960 538q1 9-5 12L670 739q-6 4-16-2l-10-7-1-9c-2-25-16-57-36-87l63 39 5 54-4-53 285-188zm-8-96-69 46h-1s-9 5-9 15l-1-8c-1-11 10-17 10-17l69-46zm0 0 4 42zM667 629l3 44-63-39q-27-40-64-64-36-21-60-11-25 11-25 50l2 10-217-131v-10c-2-25-17-58-37-89h-1q-26-39-62-62-35-20-58-11l-50-31 50 31q-28 11-27 50l2 10-26-15c-12-8-24-25-24-38l-5-55v-1l-5-60q0-18 15-14H5L290 5q6-4 16 2L21 196l149 71 78-78c5 3 110 61 160 91q10 5 16 10c56 37 131 93 212 279l6 4c12 8 22 25 23 38l1 10 69-46c11-6 12 6 12 6l2 30v2l-2-23s0-14-12-6zm185-275s16-11 5-29c-41-86-92-143-127-171l-3-3c9-1 20 3 24 7 35 28 86 85 127 172 11 18-5 28-5 28L655 500s-17 12-27-1l6-4z"/><path fill="#1c421e" d="m666 621-1-10c-1-13-11-30-23-38l-5-3-1-1 285-189c22 10 29 28 29 42l2 20-1-10-69 46s-11 6-10 17l1 8c0-10 9-15 9-15h1l69-46 1 15 3 29-285 188-4-45 68-45c12-8 12 6 12 6l2 23v-2l-2-30s-1-12-12-6zM306 7l126 60-184 122-78 78-149-71L304 8z"/><path fill="#fdfdfd" d="M655 500s-21 15-30-6c-43-90-94-147-128-174-4-3-8-22 0-27l231-142 2 3c35 28 86 85 127 171 11 18-5 29-5 29v-1L634 495l-6 4c10 13 27 1 27 1M251 214q13-2 20 3c201 87 275 194 307 266q3 4 2 8L217 280q-14-9-5-19l48-44 3-3z"/><path fill="#dcddde" d="M533 0 248 189c5 3 110 61 160 91L693 91C643 60 538 4 533 0"/><path fill="#f8b227" d="m740 625-70 46s-25-14-32-20q-8-7-6-9l-1-26c0-3 1-8 7-4l28 17 69-45c12-8 12 6 12 6l2 23q1 5-9 12m135-95-2-26c0-10 9-16 9-16l70-46 3 42-70 48c-10 7-10-2-10-2"/></svg>