<svg xmlns="http://www.w3.org/2000/svg" viewBox="0 0 960 976"><circle cx="472" cy="503" r="472" fill="#db9f01"/><circle cx="488" cy="473" r="472" fill="#ffbc0d"/><path fill="#050505" d="M415 84h88q27-1 54 1l4 1q3 6 2 10v81q1 4-2 7c-4 3-29 1-35 1v49a339 339 0 0 1 93 28 307 307 0 0 1 50 31l15-20q-6-6-11-15-4-9 0-19 3-9 12-13 11-4 23 1c15 6 40 27 46 43q5 10 1 20-5 9-14 13-13 4-25-3l-17 20a336 336 0 0 1 91 201 246 246 0 0 1-3 58 306 306 0 0 1-43 115 309 309 0 0 1-352 128 344 344 0 0 1-78-39 332 332 0 0 1-50-43 296 296 0 0 1 12-421l-17-19q-7 5-17 6h-1l-2-1-5-1h-1l-2-1h-1l-1-1h-1l-1-1-1-1-1-1-1-1q-8-8-7-20 1-13 10-21l40-31 12-2h2l3 1h1l4 3 3 1 1 1 1 1 1 1v1q8 8 7 19-2 14-14 22l17 19a286 286 0 0 1 95-49 285 285 0 0 1 48-10l-1-49h-30q-4 0-6-3l-1-5 1-89z"/><path fill="#fefefe" d="m692 281 15 13-15 18-15-13zm-412 0q10 8 17 18l-14 13c-4-1-14-15-17-19z"/><path fill="#dfc6ab" d="m691 234 10 1c14 4 37 24 44 38q3 7 1 13-4 6-10 8h-10c-10-3-38-30-43-39q-3-6-1-11 2-7 9-10m-420 0 9 1a16 16 0 0 1 11 9l1 5v6l-5 7c-5 6-34 30-40 33h-10q-6-2-9-9-3-6 0-14c3-8 35-34 43-38"/><path fill="#7f7672" d="m513 185 2 1v46a337 337 0 0 0-56-1v-45z"/><path fill="#dfc6ab" d="m421 95 131 1v78H421z"/><path fill="#d2ab7b" d="M752 414q27 57 27 119h-32l-5 2q-2 3-1 4l2 3c4 2 30 1 36 1q-1 54-22 103l-10 24q-12-8-24-11l-3 3v4c2 4 17 10 21 13-28 46-57 78-105 106-3-4-16-23-20-24l-4 2-1 4c1 7 12 17 16 23-44 23-85 34-134 36 0-7 1-39-2-42l-3-2-4 3c-3 5-1 34-1 41q-56 0-108-22l-21-9 57-58 25-25 6 3q39 18 80 5l3-1 4-2 3-1 9-5 2-1 2-2 2-1 14-12 4-4 1-1 2-2 2-2 1-3 2-2 1-2 2-2 1-2 1-2 1-3 2-2 1-2q18-42 1-85l23-21 34-35q55-56 112-111"/><path fill="#dfc6ab" d="M346 279c43-25 87-35 137-38-1 7-2 23 1 29l3 2 4-3c3-3 2-23 2-27 50 1 91 13 135 36-2 4-13 18-13 22l2 3 4 2c3 0 14-18 16-21a276 276 0 0 1 103 109q-13 6-25 14-3 2-3 5t3 4h3c6-1 21-11 28-15l6 13q-57 55-112 111l-34 35-23 21q17 43-1 85l-1 2-3 5-1 2-9 13-2 2-12 12-3 2-2 1-8 6-2 1-14 7-3 1a107 107 0 0 1-86-8l-25 25-57 58-7-4 19-25-8-6-20 26c-41-24-83-63-105-106l25-16-5-7-26 15c-23-40-31-83-34-129h31v-10h-31c0-45 13-92 34-132l24 15 4-8-24-15c25-44 63-84 107-109q6 11 14 20l5 1 2-2c1-7-9-18-13-24"/><path fill="#050505" d="M436 712a105 105 0 0 1 20-192l3-1 10-2h3l13-1h13l12 2 3 1 12 4q42 18 58 58a108 108 0 0 1-12 102l-1 3-2 2-2 2-1 1-2 2-18 15-2 2-2 1-2 1-17 8a107 107 0 0 1-86-8"/><path fill="#fefefe" d="M479 526a94 94 0 0 1 72 26l2 1 3 4 1 2 3 3 2 2 6 10 1 2 4 6 1 3v2l1 2 1 2 1 2v3l1 2v2l1 3v2l1 5v2l1 2q3 40-23 70a94 94 0 0 1-133 8l-2-2-1-2-2-1-2-2-3-3-1-2-2-2-1-2-7-10-1-2-2-4-1-2-2-7-1-2-3-11v-3l-1-2v-5l-1-7v-4l1-3v-4l1-5v-4l1-3 4-13 1-2 1-2 1-2 3-6 2-2 1-2 1-2 4-6q26-31 66-35"/><path fill="#050505" d="M337 335h86l132 1 49-1 29 1q10 0 19 6 13 10 15 28 1 15-1 32c0 14 2 40 0 53l-3 9-5 9q-11 10-24 11H371q-19 1-36-1-10 0-18-6-12-10-14-26v-86l3-9 4-6 1-2q11-12 26-13"/><path fill="#dd2d17" d="M335 347h293l12 2q10 5 13 15a630 630 0 0 1 0 94q-6 11-18 14H341q-8 0-14-3-8-4-10-14l-2-9v-77q0-6 3-10 6-10 17-12"/></svg>