<svg xmlns="http://www.w3.org/2000/svg" fill="none" stroke="#ded1af" viewBox="0 0 1439 1472"><path d="m1234 1342 9 81 108-16v-73zm-12-89 6 79 130-12v-78zm-82 23 72-16 16 168h-64zm-150 28 10 61 135-39-15-32-14-17zm11 69 139-29 13 93-143 16zm-14 6-76 18s6 13 16 16c15 5 63-13 63-13zm-144-65 64 70 79-17-10-53s-44 7-59 7c-19 0-74-7-74-7Zm17 40-25 33h62zm-46-46-78 71 86 8 33-39zm-612 79 97 6v63h-97zm-13 0H96v65h88zm-144 2 42 4-8 59H45zm266-24h48v15h-48zm55-18h18v33h-18zm-7-5v14h-48l-7-67zm-48-63 55 62h12l-8-63zm57-56v46l-62 3-4-46zm-7-41 6 28h-58l-9-27zm-75 5-53 8 9 77h48zm-43 94 2 37 45-5v-32zm3 44 3 27 43 2v-34zm-78-65h61l10 87h-73zm-59 5 50-3v81l-50 4zm-40 7 24 1v74H70zm31-73H66l-2 63h36zm9 6v54l52-5-6-49zm63 0 53-9 3 56-56 1zm-56-64 102-5 5 41-112 14zm-47-5v46h31l7-41zm3-99 44 1-7 94-37-7zm53 1 80-2 11 84-96 16zm87-6 59-25 6 107-54 6zm18 98 47-4 1 53-45 1zm60-79 63-25 6 144h-61zm-11-50 8 42 92-38-10-44zm80 49h29l34 304 43 2-1 24h-71z"/><path d="m423 1281 42-3-2 67-34-1zm-12-145 57-4-2 137-44 3zm-32-180 85-39 5 203-60 5zm113 276h8v30l79 111-88 7z"/><path d="m511 1236 63-8 56 81-51 42-68-86zm74 123 61-31 72 52-121-1zm99-17h30l36 12-24 23zm23-14 87-34 16 9-52 46zm81-41-114 39 75-61zm-138 26 12 13 78-66-20-13zm57-74-71 59-130-202zm-213-137v121l73-6zm-4-40 112-11 6 74-6 26-112-71zm140 103 164 113v-55l-36-10 35-50z"/><path d="M811 1163h93l59 43v19l-192-15zm-6 66v42h122l36-36zm53 52v25l-50-15v-7zm67-1v26l-56-2v-26zm41-32-32 29v25h39zm7-54 139-6v75l-122 24zm-13-40 152 12-129 12zm168 5h82l-4 78-71 19zm94 0 158-30-9 81-149 32zm-100-152 95-16 3 152h-88zm114 96 5 36 137-25 8-22zm-4-62 4 51 153-13-3-40zm6-50 7 48 141-12-11-51zm-297 27 90-3v119h-56zm102-4 64-5 5 134-76-2zm-259 85 150-5 7 40H782zm-2-47 1 30 140-6-6-28zm-166-2h149l-3 84H623zm-90-43-3 34 240-3-5-31zm249-6 5 40 105-4z"/><path d="M486 913s107-24 144-26c29-3 119 3 119 3l3 104H516l-5 37-21 8zm277-30 134-10 10 61-120 5 3 52h-19z"/><path d="M797 944h38l3 51-37-8zm50 0h60l16 95-76-27zM421 762l-32 4 16-68zm0 10 3 22-19 3v29l-26-3 10-45z"/><path d="M411 804v18l21-3-8-15zm-32 29 58-7 21 64-76 35-23-20zm-111 99 6 42 95-44-12-10-55 2zm-12-2 9 47-59 24-6-62zm-57 79-10 5-21 1-8-69 33-7zm-46-61h-20l-6 36 31-4zm-26 49 33-4v22h-33zm-7-42-48 3v56h40zm4-87v74l-55 6v-16zm5-25 46-7 15 91-53 5zm109-11 10 82-52 11-11-91z"/><path d="m160 810 11 14h77l11 100 48-11 33 1 39-130zm-88 3 65-4v19l-58 66zm3-89h68l-6 72-62 6zm148-15-72 16-3 73 88-10zm10 1 7 36 32-11-3-33zm44 32-38 9 5 36 39-3zm34-50v32l-30 3-4-27z"/><path d="m283 731 35-2v-39l76-15 2 27-20 68-88 9zm-65-223 207 18-36 135-108 33-112 15zM68 640l87 5-17 58-70-2zm4-96 111-10-26 101-87-4zm128-68-11 40-100 18zm12 1 136 17-25-70zm136-18h63l-11 42-34-5zm67 0h30l-19 46-20-3zm-44-71-41 24 12 32 93 8 10-53zm-14-48 98 13-10 33-76-9zm7-60-16 50h101l6-26zm23-67 80 7-18 74-78-22zm-25 168L42 544 0 452l101-83 236-39zm-211-96-26 55 7 12 73-17 12-39zm-88-10 66 10-40 78H70zm118-70h60l-24 80-60-10zm-12 0-29 75-77-16 14-67zm294-3-106 3-3-69 116 5zM412 40l43-40 47 35-16 64-31 24zm87 55 51-6 17 21-77 44zm63 34 22-8 45 48-24 36h-26zm-17 3-41 25 58 22zm-58 33v44l75-13zm-8 55-4 71 99-59v-17zm108-1 39-14 24-32 36 38-99 22zM560 68l41-30 60 83-30 13zm152-10 77 34-77 98-55-45zm215 31L792 99l-52 77 74 77 54-15 7 15 66-9z"/><path d="m737 185-13 15 81 84 41-11v-14l10-9-51 9zm82 119 122-26 21 82-58 16zm248-57 18 85-110 25-20-86zM917 387l140-35 18 66-28 74zm150-35 24-9 3 23-15 39zm10-109 77-15-53 115zm-66-55 3 35 12-2 3 20 95-19-12-51zm-12 4 5 31-52 11v-36zM936 89l42-11 26-45 16 138-70 14zm78-56 61-5 31 130-77 16zm81-2 144 32-80 150-26 3zm188 0 15-5-73 168-24-13zm-87 160 24 13-82 190-26-12zm-89 203 25 12-12 29-24-10zm-15 36 25 12-31 70-16-12zm117-178-15 33 47 26 20-31zm-17 38-28 62 17 7 26-31 23 2 8-15zm-32 69-20 66 40-53zm-32 81 36 16-49 81-16-15zm158-354-27 56 62 41 35-57zm30 105-14 22-59-34 12-26zm-17 27-12 20-57-32 10-21zm-16 26-17 26-52-28 13-29z"/><path d="m1358 144 72 46-189 287-83-58 57-84 16 8zm80 72-97 157 87 24zm-95 166 32 15-32 65-44-32zm-54 67 44 21-32 48-49-28zm100-38 37 3 6 112-77 6 2-63zm-44 70-12 23 16 24zm33 83 52 25-98 137-49-35zm54 49-8 140-54 4-32-23zm-83 154h28v93h-21zM467 327s19-23 26-28c78-56 200-81 200-81l-30 96-24 9zm109 16 54-10 18 30-6 33-64-12zm-8-3v43l-43-7-25-43zm-101-7h17l29 50-10 35-48-5z"/><path d="m521 383 47 9-14 73-104-10 3-31 60 7zm53 11-6 71h54l18-60zm114-36-27 18-11 20 66 11v-11zm14-131-21 89 8 11 56-14 10 14-61 6 39 76 73-12-12-73zm-4 193 109-15 18 72-132-5zm-10-4-40-11-12 60 47 8zm-238 57h69l-10 43-61-8zm77 4 29 1-10 44-29-4zm36 4h53l-4 41h-49zm73-3-11 44h52l6-35zm57 11-5 33h48l10-33zm61 0h71l7 33h-83zm112-105-59-49 14 82zm14 12-48 37 43 56 67-41zm71 59 25 20-49 47h-29l-15-22zm-118 2 10 65h41zm155 28-42 39 59 6 25-10zm34 64 34-17 22 4-1 50-53 12zm-13 6h-64l5 37 62-2zm69 37-14 8-42 5 25 47 34-17zm-26 72 29-16-5 63zm-12 3-51 32v23l79-8zm-85-66h54l27 56-50 28-1-18zm-96 3 80-4 35 76-103 5zm-10-47 6 35 82-3 1-34zm130 131v34l-96 3-9-30zm-57 46 60 44-3-44zm-39 6h25l49 41h-65zm21 55 65-5 32 18 7 28-98 10zm187-249 9 170 124-45zm34-1 51-81 114 74 30-29 29 34-93 126zm-19 183 114-43 1 16-64 104h-26l-1-29-20-1zm125-28-63 111h100zm18 0 54 165 40-3-6-100zm120 176-113 10 12 87 109-11zM991 734l4 54 84-10v-47z"/><path d="m1015 797 107-9 9 124-109 13z"/><path d="m916 860 92-10 7 94 116-16 3 58-201 23zm218-37h134l15 42-47 5 16 106-106 7zM448 529v15l130 44 9-30h-15zm159 52 125-1-4-22H612zm131-23 4 21h103l-5-22zm-299-6-31 116 45 186zm38 12-15 61 43-4 35 21 43-12 1-26z"/><path d="m458 636 44-3 84 42 21 186-136 21zm139 35 140-25 4 205-126 9zm-2-67v48l100-12v-24l-79-3zm109 16v17h28v-15zm-159 28 38-7v23zm205-32v18l70-20zm2 24 37-9 15 59-51 2zm50-9 18-3 5 56h-11zm-50 69 55-2 3 32h-56zm65 0h15l9 30h-25zm-58 42h48l3 45h-50zm60 0h25l-3 24 8 16-30 3zm-59 61 52-10v36l-49 4zm5 36 54-3v14l-54 1zm60-45 28-1v10l11 20-39 4zm0 42 38-4 9 15-47 1z"/><path stroke-width="4" d="M82 714h66l59-222 139 16 96 7 131 29h435l39-20 70-191 56-124 59-108 44-71"/><path stroke-width="4" d="m596 30-67 47 38 12 64 65 30 7 145 155 176 148 59 45 36 9 183 174 96 67 29 5 3 101-11 16 5 79M72 1026h120l283-127 150-26 272-17-56-213v-51H590l14-48"/><path stroke-width="4" d="m475 899 6 271-3 210-10 25v47"/></svg>